<?xml version="1.0" ?><svg id="Layer_1" style="enable-background:new 0 0 512 512;" version="1.1" viewBox="0 0 512 512" xml:space="preserve" xmlns="http://www.w3.org/2000/svg" xmlns:xlink="http://www.w3.org/1999/xlink"><style type="text/css">
	.st0{fill:#479484;}
	.st1{opacity:0.1;}
	.st2{fill:#5DB8A6;}
	.st3{fill:#FFFFFF;}
</style><g><g id="XMLID_3_"><path class="st0" d="M463.2,512H48.8C21.8,512,0,490.2,0,463.2V48.8C0,21.8,21.8,0,48.8,0h414.5    C490.2,0,512,21.8,512,48.8v414.5C512,490.2,490.2,512,463.2,512z" id="XMLID_3210_"/><path class="st1" d="M472,40H40v432l40,40h383.2c26.9,0,48.8-21.8,48.8-48.8V80L472,40z" id="XMLID_2072_"/><rect class="st2" height="432" id="XMLID_4_" transform="matrix(-1.836970e-016 1 -1 -1.836970e-016 511.5 0.5)" width="432" x="39.5" y="40"/></g><g><g id="XMLID_961_"><g id="XMLID_967_"><g id="XMLID_977_"><g id="XMLID_980_"><polygon class="st3" id="XMLID_981_" points="370.3,155.8 300.6,155.8 300.6,86.1 310.8,86.1 310.8,145.7 370.3,145.7               "/></g><g id="XMLID_978_"><polygon class="st3" id="XMLID_979_" points="375.4,431 103.3,431 103.3,81 310.6,81 375.4,148.7 375.4,256 365.2,256         365.2,152.8 306.3,91.2 113.5,91.2 113.5,420.8 365.2,420.8 365.2,396.8 375.4,396.8       "/></g></g><g id="XMLID_968_"><g id="XMLID_975_"><rect class="st3" height="10.2" id="XMLID_976_" width="138" x="145.9" y="154.8"/></g><g id="XMLID_973_"><rect class="st3" height="10.2" id="XMLID_974_" width="90.9" x="145.9" y="184.8"/></g><g id="XMLID_971_"><rect class="st3" height="10.2" id="XMLID_972_" width="186.9" x="145.9" y="214.7"/></g><g id="XMLID_969_"><rect class="st3" height="10.2" id="XMLID_970_" width="186.9" x="145.9" y="244.7"/></g></g></g><g id="XMLID_962_"><path class="st3" d="M370.3,409.3L315.5,330h23.4v-79.1h62.9V330h23.4L370.3,409.3z M334.9,340.2l35.5,51.3      l35.5-51.3h-14.2v-79.1h-42.5v79.1H334.9z" id="XMLID_963_"/></g></g><path class="st3" d="M274.2,306.6H86.8v80.5h187.4l-39.9-40.2L274.2,306.6z M150.3,361.8    c-2.2,1.7-5.1,2.5-8.7,2.5c-3.5,0-6.5-0.9-9-2.8c-2.6-1.8-3.8-4.4-3.7-7.8l0-0.1h5.5c0,2,0.7,3.6,2.1,4.6c1.4,1,3.1,1.6,5.2,1.6    c2,0,3.6-0.4,4.7-1.3c1.1-0.8,1.7-2,1.7-3.4c0-1.4-0.5-2.6-1.5-3.5c-1-0.9-2.8-1.7-5.3-2.4c-3.7-1-6.5-2.3-8.5-4    c-2-1.6-3-3.8-3-6.4c0-2.7,1.1-5,3.3-6.8c2.2-1.8,5-2.7,8.4-2.7c3.7,0,6.6,1,8.8,3c2.2,2,3.3,4.4,3.2,7.3l0,0.1h-5.5    c0-1.8-0.6-3.2-1.8-4.3c-1.2-1.1-2.8-1.6-4.8-1.6c-1.9,0-3.4,0.5-4.4,1.4c-1,0.9-1.6,2.1-1.6,3.5c0,1.3,0.6,2.4,1.7,3.2    c1.1,0.8,3,1.7,5.7,2.4c3.6,1,6.3,2.4,8.2,4.1c1.9,1.7,2.8,3.9,2.8,6.6C153.6,357.9,152.5,360.1,150.3,361.8z M175.1,363.8h-5.4    l-12.1-34h6.1l8.1,24.8l0.6,2.5h0.1l0.6-2.4l8.1-24.8h6.1L175.1,363.8z M217.5,359.2c-0.9,1.3-2.4,2.5-4.5,3.5    c-2,1-4.7,1.6-7.9,1.6c-4,0-7.3-1.3-9.9-3.9c-2.6-2.6-3.9-5.9-3.9-10.1v-7.1c0-4.1,1.3-7.5,3.8-10.1c2.5-2.6,5.7-3.9,9.7-3.9    c4,0,7,1,9.3,3c2.2,2,3.3,4.6,3.2,7.8l-0.1,0.1h-5.4c0-1.9-0.6-3.5-1.8-4.6c-1.2-1.2-2.9-1.8-5.1-1.8c-2.4,0-4.2,0.9-5.7,2.6    c-1.4,1.8-2.2,4-2.2,6.7v7.1c0,2.7,0.8,5,2.3,6.8c1.5,1.8,3.5,2.7,5.9,2.7c1.8,0,3.3-0.2,4.3-0.6c1.1-0.4,1.9-0.9,2.4-1.5v-7h-7.1    v-4.3h12.8V359.2z" id="XMLID_2639_"/></g></g></svg>